HIERARCHY
ROOT joint_Root
{
	OFFSET 0.0 0.0 0.0
	CHANNELS 6 Xposition Yposition Zposition Zrotation Xrotation Yrotation 
	JOINT Hips
	{
		OFFSET -0.726466 93.3139 -2.00062
		CHANNELS 6 Xposition Yposition Zposition Zrotation Xrotation Yrotation 
		JOINT Spine
		{
			OFFSET 15.7357 0.0 0.0
			CHANNELS 6 Xposition Yposition Zposition Zrotation Xrotation Yrotation 
			JOINT Chest
			{
				OFFSET 8.98455 -0.406207 0.0
				CHANNELS 6 Xposition Yposition Zposition Zrotation Xrotation Yrotation 
				JOINT Neck
				{
					OFFSET 16.3773 0.0 0.0
					CHANNELS 6 Xposition Yposition Zposition Zrotation Xrotation Yrotation 
					JOINT Head
					{
						OFFSET 6.45672 0.0 0.0
						CHANNELS 6 Xposition Yposition Zposition Zrotation Xrotation Yrotation 
						End Site
						{
							OFFSET 0.0 0.0 0.0
						}
					}
				}
				JOINT Shoulder_L
				{
					OFFSET 12.9942 -0.242716 4.98039
					CHANNELS 6 Xposition Yposition Zposition Zrotation Xrotation Yrotation 
					JOINT UpperArm_L
					{
						OFFSET 5.34809 0.0 0.0
						CHANNELS 6 Xposition Yposition Zposition Zrotation Xrotation Yrotation 
						JOINT LowerArm_L
						{
							OFFSET 24.3286 1.87007e-05 0.0
							CHANNELS 6 Xposition Yposition Zposition Zrotation Xrotation Yrotation 
							JOINT Hand_L
							{
								OFFSET 22.2916 0.0 0.0
								CHANNELS 6 Xposition Yposition Zposition Zrotation Xrotation Yrotation 
								End Site
								{
									OFFSET 0.0 0.0 0.0
								}
							}
						}
					}
				}
				JOINT Shoulder_R
				{
					OFFSET 12.9945 -0.242716 -4.98039
					CHANNELS 6 Xposition Yposition Zposition Zrotation Xrotation Yrotation 
					JOINT UpperArm_R
					{
						OFFSET -5.34813 0.0 0.0
						CHANNELS 6 Xposition Yposition Zposition Zrotation Xrotation Yrotation 
						JOINT LowerArm_R
						{
							OFFSET -24.3289 0.000322201 0.0
							CHANNELS 6 Xposition Yposition Zposition Zrotation Xrotation Yrotation 
							JOINT Hand_R
							{
								OFFSET -22.2915 -0.000108084 0.0
								CHANNELS 6 Xposition Yposition Zposition Zrotation Xrotation Yrotation 
								End Site
								{
									OFFSET 0.0 0.0 0.0
								}
							}
						}
					}
				}
			}
		}
		JOINT UpperLeg_L
		{
			OFFSET -2.19248 -6.46944 0.0
			CHANNELS 6 Xposition Yposition Zposition Zrotation Xrotation Yrotation 
			JOINT LowerLeg_L
			{
				OFFSET 39.0811 0.0 -1.23785e-05
				CHANNELS 6 Xposition Yposition Zposition Zrotation Xrotation Yrotation 
				JOINT Foot_L
				{
					OFFSET 40.9854 0.0 -1.26872e-05
					CHANNELS 6 Xposition Yposition Zposition Zrotation Xrotation Yrotation 
					JOINT Toes_L
					{
						OFFSET 11.7543 0.0 0.0
						CHANNELS 6 Xposition Yposition Zposition Zrotation Xrotation Yrotation 
						End Site
						{
							OFFSET 0.0 0.0 0.0
						}
					}
				}
			}
		}
		JOINT UpperLeg_R
		{
			OFFSET -2.19251 6.46944 0.0
			CHANNELS 6 Xposition Yposition Zposition Zrotation Xrotation Yrotation 
			JOINT LowerLeg_R
			{
				OFFSET -39.0811 -0.00228153 -0.0401928
				CHANNELS 6 Xposition Yposition Zposition Zrotation Xrotation Yrotation 
				JOINT Foot_R
				{
					OFFSET -40.9854 0.0 0.0
					CHANNELS 6 Xposition Yposition Zposition Zrotation Xrotation Yrotation 
					JOINT Toes_R
					{
						OFFSET -11.7543 0.0 0.0
						CHANNELS 6 Xposition Yposition Zposition Zrotation Xrotation Yrotation 
						End Site
						{
							OFFSET 0.0 0.0 0.0
						}
					}
				}
			}
		}
	}
}
MOTION
Frames:	8
Frame Time:	0.0333333
0.000000 0.000000 0.000000 0.000000 0.000000 -0.000000 77.327500 92.183200 -134.312000 88.402100 4.365820 2.964820 15.735700 0.000005 -0.000001 95.412700 83.364700 -93.653800 8.984550 -0.406207 -0.000000 5.430220 1.213150 3.456280 16.377300 -0.000001 -0.000001 2.992130 -4.014110 3.183370 6.456720 -0.000001 -0.000000 5.283300 -4.722170 -3.147020 12.994200 -0.242716 4.980390 -89.690800 -0.950621 -71.980400 5.348090 -0.000007 -0.000001 -69.441000 33.145100 -16.521900 24.328600 0.000019 0.000005 3.498360 5.720220 -31.524200 22.291600 -0.000001 0.000005 6.049700 5.520090 -7.364590 12.994500 -0.242716 -4.980390 87.784200 7.052720 -72.508900 -5.348130 -0.000001 -0.000004 -61.797800 32.090800 -19.733800 -24.328900 0.000322 -0.000009 3.114540 9.166980 -18.866100 -22.291500 -0.000108 -0.000004 11.472600 5.373150 -2.084000 -2.192480 -6.469440 -0.000000 -174.119000 -9.042940 -15.675800 39.081100 -0.000007 -0.000012 0.078475 -0.033086 67.135700 40.985400 -0.000006 -0.000013 1.633280 -7.552760 -48.693500 11.754300 -0.000000 0.000003 -0.009449 -0.099480 -20.629300 -2.192510 6.469440 -0.000001 -174.203000 12.301200 172.565000 -39.081100 -0.002282 -0.040193 0.037700 -0.079496 23.390200 -40.985400 0.000008 0.000006 9.214730 -1.658160 -63.374300 -11.754300 -0.000006 -0.000006 -0.010570 -0.107846 -20.967800
0.000000 0.000000 0.000000 0.000000 0.000000 -0.000000 77.564400 92.500400 -131.627000 89.224400 2.338700 3.118720 15.735700 0.000005 -0.000001 99.510000 83.215000 -98.201400 8.984550 -0.406207 -0.000000 5.596850 2.211900 2.506380 16.377300 -0.000001 -0.000001 3.412320 -3.584790 2.886980 6.456720 -0.000001 -0.000000 5.530210 -4.969050 -4.062970 12.994200 -0.242716 4.980390 -89.677600 -0.941879 -71.102700 5.348090 -0.000007 -0.000001 -70.504300 32.405900 -13.644500 24.328600 0.000019 0.000005 3.729580 6.666340 -29.319300 22.291600 -0.000001 0.000005 5.386160 5.514100 -7.110200 12.994500 -0.242716 -4.980390 87.956200 6.701400 -72.996100 -5.348130 -0.000001 -0.000004 -59.071900 32.446600 -25.077600 -24.328900 0.000322 -0.000009 3.294580 8.059500 -22.332500 -22.291500 -0.000108 -0.000004 11.685400 5.384000 -2.424530 -2.192480 -6.469440 -0.000000 -175.636000 -10.117300 -18.738100 39.081100 -0.000007 -0.000012 0.059403 -0.027804 64.913200 40.985400 -0.000006 -0.000013 2.423190 -7.167020 -51.134100 11.754300 -0.000000 0.000003 -0.008721 -0.093827 -20.398300 -2.192510 6.469440 -0.000001 -175.692000 12.512800 176.183000 -39.081100 -0.002282 -0.040193 0.031443 -0.074244 20.746100 -40.985400 0.000008 0.000006 9.211500 0.493800 -64.033800 -11.754300 -0.000006 -0.000006 -0.010665 -0.108540 -20.996200
0.000000 0.000000 0.000000 0.000000 0.000000 -0.000000 77.760200 92.635800 -128.944000 89.811200 0.614241 3.344840 15.735700 0.000005 -0.000001 102.386000 83.038200 -101.430000 8.984550 -0.406207 -0.000000 5.815540 2.962580 1.758690 16.377300 -0.000001 -0.000001 3.738720 -3.176410 2.537130 6.456720 -0.000001 -0.000000 5.689990 -5.034240 -4.909260 12.994200 -0.242716 4.980390 -89.737400 -0.731562 -70.250200 5.348090 -0.000007 -0.000001 -71.580300 30.798000 -10.627400 24.328600 0.000019 0.000005 3.925780 7.740250 -27.000500 22.291600 -0.000001 0.000005 5.177460 5.504090 -6.699050 12.994500 -0.242716 -4.980390 88.074100 6.476760 -73.400500 -5.348130 -0.000001 -0.000004 -56.248500 32.220200 -30.201200 -24.328900 0.000322 -0.000009 3.339840 6.969600 -25.694100 -22.291500 -0.000108 -0.000004 11.810200 5.394540 -2.760540 -2.192480 -6.469440 -0.000000 -176.652000 -10.514500 -20.846000 39.081100 -0.000007 -0.000012 0.047991 -0.027854 59.864800 40.985400 -0.000006 -0.000013 2.112950 -5.531830 -53.300000 11.754300 -0.000000 0.000003 -0.007957 -0.087688 -20.147500 -2.192510 6.469440 -0.000001 -177.041000 12.622900 179.679000 -39.081100 -0.002282 -0.040193 0.022716 -0.058394 18.370400 -40.985400 0.000008 0.000006 9.103510 2.380970 -64.839500 -11.754300 -0.000006 -0.000006 -0.010780 -0.109378 -21.030500
0.000000 0.000000 0.000000 0.000000 0.000000 -0.000000 77.977700 92.604800 -126.288000 90.197100 -0.638838 3.332610 15.735700 0.000005 -0.000001 104.398000 82.927500 -103.693000 8.984550 -0.406207 -0.000000 5.922160 3.496580 1.226290 16.377300 -0.000001 -0.000001 3.863770 -2.879110 2.248980 6.456720 -0.000001 -0.000000 5.823240 -5.109450 -5.654270 12.994200 -0.242716 4.980390 -89.882400 -0.316293 -69.602300 5.348090 -0.000007 -0.000001 -72.532400 28.464200 -7.798610 24.328600 0.000019 0.000005 3.911950 8.717710 -24.284900 22.291600 -0.000001 0.000005 5.503300 5.490880 -6.172100 12.994500 -0.242716 -4.980390 88.129000 6.412340 -73.696500 -5.348130 -0.000001 -0.000004 -53.212600 31.638700 -34.910400 -24.328900 0.000322 -0.000009 3.245860 5.897020 -28.908700 -22.291500 -0.000108 -0.000004 12.335100 5.404440 -3.082140 -2.192480 -6.469440 -0.000000 -177.331000 -10.533800 -22.158300 39.081100 -0.000007 -0.000012 0.035067 -0.027519 51.872700 40.985400 -0.000006 -0.000013 1.777910 -4.033590 -54.453200 11.754300 -0.000000 0.000003 -0.007466 -0.083622 -19.981400 -2.192510 6.469440 -0.000001 -178.223000 12.791500 -177.113000 -39.081100 -0.002282 -0.040193 0.012078 -0.030512 16.000300 -40.985400 0.000008 0.000006 8.525740 3.859190 -65.882500 -11.754300 -0.000006 -0.000006 -0.010141 -0.104691 -20.838700
0.000000 0.000000 0.000000 0.000000 0.000000 -0.000000 78.181300 92.448900 -123.628000 90.400900 -1.432900 3.091740 15.735700 0.000005 -0.000001 105.758000 82.907500 -105.246000 8.984550 -0.406207 -0.000000 5.879170 3.833870 0.826047 16.377300 -0.000001 -0.000001 3.919940 -2.673130 2.055000 6.456720 -0.000001 -0.000000 5.992180 -5.157920 -6.041910 12.994200 -0.242716 4.980390 -89.981300 -0.049201 -69.183800 5.348090 -0.000007 -0.000001 -73.580100 25.359100 -5.242930 24.328600 0.000019 0.000005 3.737330 9.708670 -21.177000 22.291600 -0.000001 0.000005 6.037250 5.476210 -5.606550 12.994500 -0.242716 -4.980390 88.157300 6.432870 -73.978700 -5.348130 -0.000001 -0.000004 -50.672300 30.536900 -38.591500 -24.328900 0.000322 -0.000009 3.219840 5.180070 -31.935300 -22.291500 -0.000108 -0.000004 12.932700 5.417440 -3.511980 -2.192480 -6.469440 -0.000000 -177.689000 -10.294800 -22.423300 39.081100 -0.000007 -0.000012 0.022056 -0.025503 40.851500 40.985400 -0.000006 -0.000013 1.190340 -3.147890 -54.254100 11.754300 -0.000000 0.000003 -0.007642 -0.085096 -20.041600 -2.192510 6.469440 -0.000001 -179.226000 13.172000 -174.224000 -39.081100 -0.002282 -0.040193 0.002854 0.001941 13.835300 -40.985400 0.000008 0.000006 8.231180 5.091260 -66.898000 -11.754300 -0.000006 -0.000006 -0.010831 -0.109748 -21.045600
0.000000 0.000000 0.000000 0.000000 0.000000 -0.000000 78.384100 92.094900 -120.909000 90.389200 -1.902310 2.477510 15.735700 0.000005 -0.000001 107.137000 83.064900 -106.765000 8.984550 -0.406207 -0.000000 5.486010 4.070090 0.549868 16.377300 -0.000001 -0.000001 3.994240 -2.580950 2.029370 6.456720 -0.000001 -0.000000 6.142250 -5.199870 -6.161200 12.994200 -0.242716 4.980390 -89.976300 -0.061493 -68.894000 5.348090 -0.000007 -0.000001 -74.466300 22.622000 -3.077620 24.328600 0.000019 0.000005 3.516500 11.061100 -17.763900 22.291600 -0.000001 0.000005 6.544810 5.458390 -4.944240 12.994500 -0.242716 -4.980390 88.190100 6.387650 -74.144200 -5.348130 -0.000001 -0.000004 -49.202300 29.275400 -40.927700 -24.328900 0.000322 -0.000009 3.511550 5.092670 -34.663600 -22.291500 -0.000108 -0.000004 13.564300 5.421470 -3.647640 -2.192480 -6.469440 -0.000000 -177.777000 -9.800110 -21.634600 39.081100 -0.000007 -0.000012 0.009210 -0.018092 26.979100 40.985400 -0.000006 -0.000013 1.214590 -2.246800 -52.498400 11.754300 -0.000000 0.000003 -0.007671 -0.085333 -20.051300 -2.192510 6.469440 -0.000001 -179.847000 13.344500 -172.224000 -39.081100 -0.002282 -0.040193 -0.004747 0.036114 12.613000 -40.985400 0.000008 0.000006 7.832950 5.648480 -68.161100 -11.754300 -0.000006 -0.000006 -0.010028 -0.103849 -20.804300
0.000000 0.000000 0.000000 0.000000 0.000000 -0.000000 78.660600 91.444700 -117.985000 90.072300 -2.652820 1.685430 15.735700 0.000005 -0.000001 109.730000 83.269500 -109.418000 8.984550 -0.406207 -0.000000 4.904750 4.527600 0.428574 16.377300 -0.000001 -0.000001 3.892050 -2.460270 2.049900 6.456720 -0.000001 -0.000000 6.345130 -5.229740 -5.978540 12.994200 -0.242716 4.980390 -89.889400 -0.282381 -68.617300 5.348090 -0.000007 -0.000001 -75.180400 20.540200 -1.177310 24.328600 0.000019 0.000005 3.277250 12.715500 -14.585800 22.291600 -0.000001 0.000005 6.635120 5.435010 -4.113390 12.994500 -0.242716 -4.980390 88.239000 6.273140 -74.285300 -5.348130 -0.000001 -0.000004 -48.601800 28.133100 -42.021900 -24.328900 0.000322 -0.000009 3.773310 5.026850 -36.976400 -22.291500 -0.000108 -0.000004 14.049900 5.429330 -3.914820 -2.192480 -6.469440 -0.000000 -177.675000 -9.940840 -19.697700 39.081100 -0.000007 -0.000012 0.001241 -0.006325 11.107500 40.985400 -0.000006 -0.000013 1.535670 -0.773267 -49.883600 11.754300 -0.000000 0.000003 -0.007576 -0.084542 -20.019000 -2.192510 6.469440 -0.000001 179.939000 12.656600 -171.599000 -39.081100 -0.002282 -0.040193 -0.009375 0.051285 13.916400 -40.985400 0.000008 0.000006 7.730950 5.576780 -70.365500 -11.754300 -0.000006 -0.000006 -0.008473 -0.091852 -20.313900
0.000000 0.000000 0.000000 0.000000 0.000000 -0.000000 79.073300 90.645500 -114.777000 89.660000 -3.782580 0.883055 15.735700 0.000005 -0.000001 113.129000 83.426900 -112.848000 8.984550 -0.406207 -0.000000 4.325090 5.147030 0.368671 16.377300 -0.000001 -0.000001 3.584470 -2.272230 2.069570 6.456720 -0.000001 -0.000000 6.424630 -5.244230 -5.741380 12.994200 -0.242716 4.980390 -89.790100 -0.529628 -68.381000 5.348090 -0.000007 -0.000001 -75.825100 19.069600 0.580149 24.328600 0.000019 0.000005 3.156820 15.046100 -11.996800 22.291600 -0.000001 0.000005 6.564950 5.401370 -2.981120 12.994500 -0.242716 -4.980390 88.318100 6.078220 -74.500600 -5.348130 -0.000001 -0.000004 -48.652700 27.288300 -42.265000 -24.328900 0.000322 -0.000009 3.901960 4.915910 -38.526100 -22.291500 -0.000108 -0.000004 14.592300 5.435590 -4.131710 -2.192480 -6.469440 -0.000000 -178.286000 -12.410400 -20.918100 39.081100 -0.000007 -0.000012 0.000138 -0.002585 3.076400 40.985400 -0.000006 -0.000013 -1.497230 0.603043 -51.038600 11.754300 -0.000000 0.000003 -0.007454 -0.083526 -19.977500 -2.192510 6.469440 -0.000001 179.560000 11.857500 -171.370000 -39.081100 -0.002282 -0.040193 -0.014528 0.061232 16.257000 -40.985400 0.000008 0.000006 7.523010 5.831610 -72.500800 -11.754300 -0.000006 -0.000006 -0.007650 -0.085147 -20.040000
